<?xml version="1.0" encoding="UTF-8" standalone="no"?>
<!DOCTYPE svg PUBLIC "-//W3C//DTD SVG 1.1//EN" "http://www.w3.org/Graphics/SVG/1.1/DTD/svg11.dtd">
<svg width="100%" height="100%" viewBox="0 0 47 47" version="1.1" xmlns="http://www.w3.org/2000/svg" xmlns:xlink="http://www.w3.org/1999/xlink" xml:space="preserve" xmlns:serif="http://www.serif.com/" style="fill-rule:evenodd;clip-rule:evenodd;stroke-linejoin:round;stroke-miterlimit:2;">
    <g transform="matrix(1,0,0,1,-6010.26,-4767.42)">
        <g transform="matrix(1,0,0,1,-27.3751,175.936)">
            <g transform="matrix(1,0,0,1,79.084,-68.7076)">
                <rect x="5958.55" y="4660.19" width="46.504" height="46.504" style="fill:none;"/>
            </g>
            <g transform="matrix(0.959686,0,0,0.816674,3022.14,3155.93)">
                <path d="M3166.4,1763.82C3166.4,1763.82 3181.41,1776.45 3181.41,1791.08C3181.41,1800.82 3174.68,1808.73 3166.4,1808.73C3158.11,1808.73 3151.38,1800.82 3151.38,1791.08C3151.38,1776.45 3166.4,1763.82 3166.4,1763.82ZM3166.4,1779.73C3166.4,1779.73 3158.15,1786.67 3158.15,1794.7C3158.15,1800.04 3161.85,1804.38 3166.4,1804.38C3170.95,1804.38 3174.64,1800.04 3174.64,1794.7C3174.64,1786.67 3166.4,1779.73 3166.4,1779.73Z" />
            </g>
        </g>
    </g>
</svg>
