<?xml version="1.0" encoding="UTF-8" standalone="no"?>
<!DOCTYPE svg PUBLIC "-//W3C//DTD SVG 1.1//EN" "http://www.w3.org/Graphics/SVG/1.1/DTD/svg11.dtd">
<svg width="100%" height="100%" viewBox="0 0 47 47" version="1.1" xmlns="http://www.w3.org/2000/svg" xmlns:xlink="http://www.w3.org/1999/xlink" xml:space="preserve" xmlns:serif="http://www.serif.com/" style="fill-rule:evenodd;clip-rule:evenodd;stroke-linejoin:round;stroke-miterlimit:2;">
    <g transform="matrix(1,0,0,1,-5958.55,-4659.18)">
        <g transform="matrix(1,0,0,1,-27.3751,175.936)">
            <g transform="matrix(1,0,0,1,27.3751,-176.939)">
                <rect x="5958.55" y="4660.19" width="46.504" height="46.504" style="fill:none;"/>
            </g>
            <g transform="matrix(4.12287,0,0,4.12287,-16049.3,-11155.2)">
                <path d="M5349.69,3793.7C5349.8,3793.47 5350.03,3793.33 5350.28,3793.33C5350.53,3793.33 5350.76,3793.47 5350.88,3793.7L5352.3,3796.46L5355.36,3796.95C5355.61,3796.99 5355.81,3797.17 5355.89,3797.41C5355.97,3797.65 5355.9,3797.91 5355.73,3798.09L5353.54,3800.29L5354.01,3803.36C5354.05,3803.6 5353.95,3803.85 5353.75,3804C5353.54,3804.15 5353.27,3804.17 5353.05,3804.06L5350.28,3802.66L5347.51,3804.06C5347.29,3804.17 5347.02,3804.15 5346.82,3804C5346.61,3803.85 5346.51,3803.6 5346.55,3803.36L5347.02,3800.29L5344.84,3798.09C5344.66,3797.91 5344.6,3797.65 5344.67,3797.41C5344.75,3797.17 5344.96,3796.99 5345.2,3796.95L5348.27,3796.46L5349.69,3793.7Z" />
            </g>
        </g>
    </g>
</svg>
